PathFileType	4	(X/Y/Z)	Kaydara																																																																																																																									
DataRate	CameraRate	NumFrames	NumMarkers	Units	OrigDataRate	OrigDataStartFrame	OrigNumFrames																																																																																																																					
30	30	4	41	mm	30	203	230																																																																																																																					
Frame#	Time	PAIB_LFHD			PAIB_RFHD			PAIB_LBHD			PAIB_RBHD			PAIB_LFTShould			PAIB_RFTShould			PAIB_LRRShould			PAIB_RRRShould			PAIB_T10			PAIB_STRN			PAIB_TRUN			PAIB_LSHO			PAIB_LUPA			PAIB_LELB			PAIB_LFRM			PAIB_LWRA			PAIB_LWRB			PAIB_LFIN			PAIB_RSHO			PAIB_RUPA			PAIB_RELB			PAIB_RFRM			PAIB_RWRA			PAIB_RWRB			PAIB_RFIN			PAIB_LFWT			PAIB_RFWT			PAIB_LBWT			PAIB_RBWT			PAIB_LTHI			PAIB_LKNE			PAIB_LSHN			PAIB_LANK			PAIB_LHEE			PAIB_LTOE			PAIB_RTHI			PAIB_RKNE			PAIB_RSHN			PAIB_RANK			PAIB_RHEE			PAIB_RTOE		
		X1	Y1	Z1	X2	Y2	Z2	X3	Y3	Z3	X4	Y4	Z4	X5	Y5	Z5	X6	Y6	Z6	X7	Y7	Z7	X8	Y8	Z8	X9	Y9	Z9	X10	Y10	Z10	X11	Y11	Z11	X12	Y12	Z12	X13	Y13	Z13	X14	Y14	Z14	X15	Y15	Z15	X16	Y16	Z16	X17	Y17	Z17	X18	Y18	Z18	X19	Y19	Z19	X20	Y20	Z20	X21	Y21	Z21	X22	Y22	Z22	X23	Y23	Z23	X24	Y24	Z24	X25	Y25	Z25	X26	Y26	Z26	X27	Y27	Z27	X28	Y28	Z28	X29	Y29	Z29	X30	Y30	Z30	X31	Y31	Z31	X32	Y32	Z32	X33	Y33	Z33	X34	Y34	Z34	X35	Y35	Z35	X36	Y36	Z36	X37	Y37	Z37	X38	Y38	Z38	X39	Y39	Z39	X40	Y40	Z40	X41	Y41	Z41
																																																																																																																												
202	6.72	261.95261	1629.32831	1608.93738	78.46107	1626.27869	1590.8165	282.60645	1590.00336	1488.32504	79.73544	1599.26605	1478.6351	236.09669	1362.10632	1618.82874	114.12316	1354.07333	1606.69388	258.25073	1420.20065	1469.37012	103.5326	1414.26285	1468.59955	187.4815	1254.65958	1393.97446	181.51655	1294.78348	1653.76129	181.53027	1194.22523	1679.14993	369.88426	1371.26526	1549.78302	441.3158	1152.00668	1570.01358	467.202	1066.34933	1545.39474	488.7088	973.9698	1629.62326	434.35665	908.90923	1759.45068	469.31232	861.92848	1703.65448	486.28746	858.50937	1774.73465	-11.32636	1349.99756	1536.81183	-63.61499	1177.74063	1471.73706	-79.7922	1062.38174	1450.53665	-102.24616	925.32669	1457.86285	-57.07928	803.56094	1544.38309	-120.2032	802.1714	1485.85983	-119.51419	753.68256	1543.00262	300.00523	906.05362	1636.39923	68.6153	917.53021	1658.51105	214.91211	944.05571	1424.38568	71.61996	939.67628	1436.72668	260.68964	698.77518	1409.7583	319.93628	455.57358	1462.43896	281.66855	276.52493	1353.62137	268.73819	187.8648	1165.92484	212.05242	214.89979	1126.82823	234.03641	39.64327	1243.47069	27.17554	637.54627	1558.4462	41.19397	451.9907	1740.88837	107.49507	276.13373	1796.08047	74.35072	62.86138	1753.86047	134.96758	65.36987	1696.25153	104.35691	46.97343	1921.88812
203	6.753	259.90828	1633.25378	1651.16257	76.40079	1630.44434	1633.54568	280.28458	1593.71979	1530.66162	77.33497	1603.24326	1521.39252	233.99599	1366.772	1661.40335	112.10238	1359.03931	1651.31134	254.41135	1424.22607	1511.21841	99.7459	1418.67203	1513.53851	181.92486	1258.88046	1437.38968	179.80677	1299.66522	1697.60727	179.772	1199.09622	1723.1752	366.72123	1375.85144	1591.26526	435.63244	1155.34142	1609.02817	460.4528	1069.6817	1581.77917	482.81723	973.30757	1661.0968	430.05714	901.38733	1788.08151	463.84048	857.55447	1729.31046	481.68995	849.67339	1799.66019	-14.34266	1355.91293	1584.42307	-68.85746	1182.52937	1525.08484	-84.55579	1066.32515	1505.57327	-105.2587	928.95744	1519.1098	-56.29478	811.51764	1609.7789	-120.53775	806.69991	1552.7359	-118.00846	760.72403	1611.73248	295.01827	907.85004	1679.98215	63.25385	922.33597	1703.28934	211.85192	943.49129	1467.97592	68.17266	943.63174	1480.87631	258.96364	679.19273	1472.6387	323.62511	443.23677	1548.10043	284.04577	280.70951	1424.27872	273.62995	217.38304	1227.56691	219.59738	253.52802	1191.75957	236.2748	49.77789	1271.65344	18.34178	642.66525	1599.54391	40.09649	453.78174	1773.76312	107.72893	272.38419	1814.76578	74.86292	63.5468	1759.52682	133.12186	67.65104	1699.60709	107.10527	41.38898	1925.09811
204	6.787	258.84066	1638.07343	1692.39944	75.17673	1635.83405	1676.23901	278.13412	1598.9389	1571.51367	75.08126	1609.03488	1563.97186	234.83812	1370.70297	1702.8093	112.42119	1363.73886	1695.74539	250.63231	1429.07776	1552.17865	95.73392	1423.83881	1558.29895	175.67142	1264.04175	1479.85428	181.24199	1303.59344	1740.29968	181.62399	1202.4511	1764.52057	365.25089	1379.42398	1628.99353	431.78783	1157.40593	1644.31793	454.91993	1071.8042	1615.76141	477.20646	972.06131	1689.27353	424.31423	892.68356	1811.65634	458.49777	852.67723	1750.50491	475.4443	839.76746	1820.16586	-15.93506	1360.82657	1633.07053	-73.94855	1186.95129	1578.6528	-91.0186	1070.13313	1563.17139	-109.01719	932.55333	1584.22562	-54.80144	820.68146	1677.96692	-120.31397	811.52512	1624.07089	-115.67072	770.09796	1685.76385	293.41423	910.27664	1720.16846	61.46384	926.69128	1744.87244	209.6147	943.90289	1507.63626	65.45988	951.59882	1522.35977	255.40199	665.38208	1535.08301	325.33688	441.73088	1635.04364	284.70394	289.18732	1504.16092	272.72799	240.33514	1302.84302	216.68207	277.40732	1270.89836	249.38519	70.25226	1340.21133	16.21168	649.30054	1628.16086	35.59686	448.95912	1790.91995	106.97803	269.12884	1826.37329	74.63267	63.64044	1764.56161	133.07678	69.4287	1700.59189	108.17636	39.25356	1926.92429
205	6.82	258.45316	1643.97797	1732.67532	74.5967	1642.37213	1718.57742	276.06853	1604.6463	1611.55426	73.0918	1615.46982	1606.38382	236.41832	1376.01578	1741.96579	113.72072	1369.20105	1738.41431	247.1838	1435.15961	1591.51733	92.36624	1430.29327	1601.74835	169.65076	1271.07338	1519.80621	184.04596	1308.80829	1780.23071	185.15972	1207.69897	1804.24896	364.61937	1384.42261	1664.53033	428.04729	1160.52208	1675.43427	449.33102	1075.23743	1645.16052	471.62621	972.32864	1712.96463	418.01861	885.19524	1829.60938	453.94238	849.73068	1766.7099	468.55228	831.61301	1835.74936	-15.96154	1366.57394	1680.78232	-77.93044	1192.23854	1634.56451	-97.24836	1075.12741	1623.918	-112.90528	938.39119	1652.60132	-52.25283	831.33026	1747.53113	-120.91994	819.20425	1699.60342	-112.27796	782.43362	1763.41125	291.3891	918.02155	1759.75555	59.21974	932.35863	1783.08868	208.3395	949.41193	1545.76447	64.30896	959.76563	1561.11465	251.71326	665.75111	1595.17761	328.36411	450.37731	1717.8299	285.97269	297.2797	1591.92856	269.89798	246.17146	1390.81619	211.28975	280.46564	1360.30334	257.02618	80.03944	1436.7189	14.62919	656.47987	1653.06534	34.70204	448.23338	1805.05066	105.07368	266.9215	1834.41025	75.97768	62.60749	1760.11505	134.26018	70.63564	1701.11221	109.01219	38.05587	1928.0098
